<mxfile host="app.diagrams.net" modified="2024-03-12T18:07:57.065Z" agent="Mozilla/5.0 (Windows NT 10.0; Win64; x64) AppleWebKit/537.36 (KHTML, like Gecko) Chrome/122.0.0.0 Safari/537.36" etag="mlC8DpG-uQ6lyC8JkwWr" version="23.1.5" type="google">
  <diagram name="PÃ¡gina-1" id="m3pXsqwTRobeCZw_9h85">
    <mxGraphModel grid="1" page="1" gridSize="10" guides="1" tooltips="1" connect="1" arrows="1" fold="1" pageScale="1" pageWidth="50000" pageHeight="50000" math="0" shadow="0">
      <root>
        <mxCell id="0" />
        <mxCell id="1" parent="0" />
        <mxCell id="2WUb4r8tFX5clPql4qqL-29" style="edgeStyle=orthogonalEdgeStyle;rounded=0;orthogonalLoop=1;jettySize=auto;html=1;entryX=0;entryY=0.5;entryDx=0;entryDy=0;exitX=1;exitY=0.5;exitDx=0;exitDy=0;endArrow=none;endFill=0;" edge="1" parent="1" source="2WUb4r8tFX5clPql4qqL-31" target="2WUb4r8tFX5clPql4qqL-11">
          <mxGeometry relative="1" as="geometry">
            <mxPoint x="1990.0588235294117" y="1069.9411764705883" as="sourcePoint" />
          </mxGeometry>
        </mxCell>
        <mxCell id="2WUb4r8tFX5clPql4qqL-34" value="N" style="edgeLabel;html=1;align=center;verticalAlign=middle;resizable=0;points=[];" connectable="0" vertex="1" parent="2WUb4r8tFX5clPql4qqL-29">
          <mxGeometry x="-0.3933" y="3" relative="1" as="geometry">
            <mxPoint x="21" y="3" as="offset" />
          </mxGeometry>
        </mxCell>
        <mxCell id="2WUb4r8tFX5clPql4qqL-1" value="Show" style="rounded=0;whiteSpace=wrap;html=1;" vertex="1" parent="1">
          <mxGeometry x="1830" y="1270" width="120" height="40" as="geometry" />
        </mxCell>
        <mxCell id="2WUb4r8tFX5clPql4qqL-2" value="Data" style="ellipse;whiteSpace=wrap;html=1;" vertex="1" parent="1">
          <mxGeometry x="1830" y="1350" width="120" height="40" as="geometry" />
        </mxCell>
        <mxCell id="2WUb4r8tFX5clPql4qqL-3" value="Horario" style="ellipse;whiteSpace=wrap;html=1;" vertex="1" parent="1">
          <mxGeometry x="1830" y="1390" width="120" height="40" as="geometry" />
        </mxCell>
        <mxCell id="2WUb4r8tFX5clPql4qqL-4" value="NomeEvento" style="ellipse;whiteSpace=wrap;html=1;" vertex="1" parent="1">
          <mxGeometry x="1830" y="1430" width="120" height="40" as="geometry" />
        </mxCell>
        <mxCell id="2WUb4r8tFX5clPql4qqL-40" style="edgeStyle=orthogonalEdgeStyle;rounded=0;orthogonalLoop=1;jettySize=auto;html=1;entryX=1;entryY=0.5;entryDx=0;entryDy=0;endArrow=none;endFill=0;" edge="1" parent="1" source="2WUb4r8tFX5clPql4qqL-6" target="2WUb4r8tFX5clPql4qqL-39">
          <mxGeometry relative="1" as="geometry" />
        </mxCell>
        <mxCell id="qAwnc1l_QS2QD1DZ8uhR-1" value="N" style="edgeLabel;html=1;align=center;verticalAlign=middle;resizable=0;points=[];" connectable="0" vertex="1" parent="2WUb4r8tFX5clPql4qqL-40">
          <mxGeometry x="-0.3725" relative="1" as="geometry">
            <mxPoint y="-17" as="offset" />
          </mxGeometry>
        </mxCell>
        <mxCell id="2WUb4r8tFX5clPql4qqL-6" value="Ingresso" style="rounded=0;whiteSpace=wrap;html=1;" vertex="1" parent="1">
          <mxGeometry x="2130" y="1350" width="120" height="40" as="geometry" />
        </mxCell>
        <mxCell id="2WUb4r8tFX5clPql4qqL-8" value="ValorIngresso" style="ellipse;whiteSpace=wrap;html=1;" vertex="1" parent="1">
          <mxGeometry x="1830" y="1470" width="120" height="40" as="geometry" />
        </mxCell>
        <mxCell id="2WUb4r8tFX5clPql4qqL-21" style="edgeStyle=orthogonalEdgeStyle;rounded=0;orthogonalLoop=1;jettySize=auto;html=1;endArrow=none;endFill=0;" edge="1" parent="1" source="2WUb4r8tFX5clPql4qqL-23" target="2WUb4r8tFX5clPql4qqL-6">
          <mxGeometry relative="1" as="geometry" />
        </mxCell>
        <mxCell id="2WUb4r8tFX5clPql4qqL-27" value="N" style="edgeLabel;html=1;align=center;verticalAlign=middle;resizable=0;points=[];" connectable="0" vertex="1" parent="2WUb4r8tFX5clPql4qqL-21">
          <mxGeometry x="-0.0664" relative="1" as="geometry">
            <mxPoint as="offset" />
          </mxGeometry>
        </mxCell>
        <mxCell id="2WUb4r8tFX5clPql4qqL-10" value="Vendedor" style="rounded=0;whiteSpace=wrap;html=1;" vertex="1" parent="1">
          <mxGeometry x="2490" y="1350" width="120" height="40" as="geometry" />
        </mxCell>
        <mxCell id="2WUb4r8tFX5clPql4qqL-11" value="Artista" style="rounded=0;whiteSpace=wrap;html=1;" vertex="1" parent="1">
          <mxGeometry x="2108.88" y="1130" width="120" height="40" as="geometry" />
        </mxCell>
        <mxCell id="2WUb4r8tFX5clPql4qqL-12" value="Cliente" style="rounded=0;whiteSpace=wrap;html=1;" vertex="1" parent="1">
          <mxGeometry x="2330" y="1510" width="120" height="40" as="geometry" />
        </mxCell>
        <mxCell id="2WUb4r8tFX5clPql4qqL-14" value="&lt;u&gt;IdArtista&lt;/u&gt;" style="ellipse;whiteSpace=wrap;html=1;" vertex="1" parent="1">
          <mxGeometry x="2108.88" y="1170" width="120" height="40" as="geometry" />
        </mxCell>
        <mxCell id="2WUb4r8tFX5clPql4qqL-15" value="Nome" style="ellipse;whiteSpace=wrap;html=1;" vertex="1" parent="1">
          <mxGeometry x="2108.88" y="1210" width="120" height="40" as="geometry" />
        </mxCell>
        <mxCell id="2WUb4r8tFX5clPql4qqL-16" value="GeneroMusical" style="ellipse;whiteSpace=wrap;html=1;" vertex="1" parent="1">
          <mxGeometry x="2108.88" y="1250" width="120" height="40" as="geometry" />
        </mxCell>
        <mxCell id="2WUb4r8tFX5clPql4qqL-17" value="&lt;u&gt;IdVendedor&lt;/u&gt;" style="ellipse;whiteSpace=wrap;html=1;" vertex="1" parent="1">
          <mxGeometry x="2490" y="1390" width="120" height="40" as="geometry" />
        </mxCell>
        <mxCell id="2WUb4r8tFX5clPql4qqL-18" value="&lt;u&gt;IdCliente&lt;/u&gt;" style="ellipse;whiteSpace=wrap;html=1;" vertex="1" parent="1">
          <mxGeometry x="2330" y="1550" width="120" height="40" as="geometry" />
        </mxCell>
        <mxCell id="2WUb4r8tFX5clPql4qqL-19" value="Nome" style="ellipse;whiteSpace=wrap;html=1;" vertex="1" parent="1">
          <mxGeometry x="2330" y="1590" width="120" height="40" as="geometry" />
        </mxCell>
        <mxCell id="2WUb4r8tFX5clPql4qqL-20" value="IdShow" style="ellipse;whiteSpace=wrap;html=1;" vertex="1" parent="1">
          <mxGeometry x="1830" y="1310" width="120" height="40" as="geometry" />
        </mxCell>
        <mxCell id="2WUb4r8tFX5clPql4qqL-22" value="" style="edgeStyle=orthogonalEdgeStyle;rounded=0;orthogonalLoop=1;jettySize=auto;html=1;endArrow=none;endFill=0;" edge="1" parent="1" source="2WUb4r8tFX5clPql4qqL-10" target="2WUb4r8tFX5clPql4qqL-23">
          <mxGeometry relative="1" as="geometry">
            <mxPoint x="2410" y="1410" as="sourcePoint" />
            <mxPoint x="2330" y="1410" as="targetPoint" />
          </mxGeometry>
        </mxCell>
        <mxCell id="2WUb4r8tFX5clPql4qqL-26" value="1" style="edgeLabel;html=1;align=center;verticalAlign=middle;resizable=0;points=[];" connectable="0" vertex="1" parent="2WUb4r8tFX5clPql4qqL-22">
          <mxGeometry x="-0.0836" y="-1" relative="1" as="geometry">
            <mxPoint as="offset" />
          </mxGeometry>
        </mxCell>
        <mxCell id="2WUb4r8tFX5clPql4qqL-23" value="Vende" style="rhombus;whiteSpace=wrap;html=1;" vertex="1" parent="1">
          <mxGeometry x="2330" y="1330" width="80" height="80" as="geometry" />
        </mxCell>
        <mxCell id="2WUb4r8tFX5clPql4qqL-32" style="edgeStyle=orthogonalEdgeStyle;rounded=0;orthogonalLoop=1;jettySize=auto;html=1;entryX=1;entryY=0.25;entryDx=0;entryDy=0;endArrow=none;endFill=0;" edge="1" parent="1" source="2WUb4r8tFX5clPql4qqL-31" target="2WUb4r8tFX5clPql4qqL-1">
          <mxGeometry relative="1" as="geometry" />
        </mxCell>
        <mxCell id="2WUb4r8tFX5clPql4qqL-33" value="N" style="edgeLabel;html=1;align=center;verticalAlign=middle;resizable=0;points=[];" connectable="0" vertex="1" parent="2WUb4r8tFX5clPql4qqL-32">
          <mxGeometry x="-0.2733" y="1" relative="1" as="geometry">
            <mxPoint x="1" y="-360" as="offset" />
          </mxGeometry>
        </mxCell>
        <mxCell id="2WUb4r8tFX5clPql4qqL-37" value="N" style="edgeLabel;html=1;align=center;verticalAlign=middle;resizable=0;points=[];" connectable="0" vertex="1" parent="2WUb4r8tFX5clPql4qqL-32">
          <mxGeometry x="-0.234" y="1" relative="1" as="geometry">
            <mxPoint x="-1" as="offset" />
          </mxGeometry>
        </mxCell>
        <mxCell id="2WUb4r8tFX5clPql4qqL-31" value="Faz" style="rhombus;whiteSpace=wrap;html=1;" vertex="1" parent="1">
          <mxGeometry x="1950" y="1110" width="80" height="80" as="geometry" />
        </mxCell>
        <mxCell id="2WUb4r8tFX5clPql4qqL-35" value="" style="edgeStyle=orthogonalEdgeStyle;rounded=0;orthogonalLoop=1;jettySize=auto;html=1;exitX=0;exitY=0.5;exitDx=0;exitDy=0;entryX=1;entryY=1;entryDx=0;entryDy=0;endArrow=none;endFill=0;" edge="1" parent="1" source="2WUb4r8tFX5clPql4qqL-12" target="2WUb4r8tFX5clPql4qqL-6">
          <mxGeometry relative="1" as="geometry">
            <mxPoint x="2230" y="1450" as="sourcePoint" />
            <mxPoint x="2090" y="1310" as="targetPoint" />
            <Array as="points">
              <mxPoint x="2330" y="1390" />
            </Array>
          </mxGeometry>
        </mxCell>
        <mxCell id="2WUb4r8tFX5clPql4qqL-36" value="N" style="edgeLabel;html=1;align=center;verticalAlign=middle;resizable=0;points=[];" connectable="0" vertex="1" parent="2WUb4r8tFX5clPql4qqL-35">
          <mxGeometry x="-0.5202" y="-3" relative="1" as="geometry">
            <mxPoint x="-3" y="-17" as="offset" />
          </mxGeometry>
        </mxCell>
        <mxCell id="2WUb4r8tFX5clPql4qqL-9" value="&lt;u&gt;Numero&lt;/u&gt;" style="ellipse;whiteSpace=wrap;html=1;" vertex="1" parent="1">
          <mxGeometry x="2130" y="1390" width="120" height="40" as="geometry" />
        </mxCell>
        <mxCell id="2WUb4r8tFX5clPql4qqL-41" style="edgeStyle=orthogonalEdgeStyle;rounded=0;orthogonalLoop=1;jettySize=auto;html=1;exitX=0;exitY=0.5;exitDx=0;exitDy=0;entryX=1;entryY=0.75;entryDx=0;entryDy=0;endArrow=none;endFill=0;" edge="1" parent="1" source="2WUb4r8tFX5clPql4qqL-39" target="2WUb4r8tFX5clPql4qqL-1">
          <mxGeometry relative="1" as="geometry" />
        </mxCell>
        <mxCell id="qAwnc1l_QS2QD1DZ8uhR-2" value="1" style="edgeLabel;html=1;align=center;verticalAlign=middle;resizable=0;points=[];" connectable="0" vertex="1" parent="2WUb4r8tFX5clPql4qqL-41">
          <mxGeometry x="-0.0208" relative="1" as="geometry">
            <mxPoint as="offset" />
          </mxGeometry>
        </mxCell>
        <mxCell id="2WUb4r8tFX5clPql4qqL-39" value="Tem" style="rhombus;whiteSpace=wrap;html=1;" vertex="1" parent="1">
          <mxGeometry x="2000" y="1290" width="80" height="80" as="geometry" />
        </mxCell>
        <mxCell id="2WUb4r8tFX5clPql4qqL-42" value="" style="shape=table;startSize=0;container=1;collapsible=0;childLayout=tableLayout;fontSize=16;fillColor=default;" vertex="1" parent="1">
          <mxGeometry x="2800" y="1080" width="120" height="240" as="geometry" />
        </mxCell>
        <mxCell id="2WUb4r8tFX5clPql4qqL-43" value="" style="shape=tableRow;horizontal=0;startSize=0;swimlaneHead=0;swimlaneBody=0;strokeColor=inherit;top=0;left=0;bottom=0;right=0;collapsible=0;dropTarget=0;fillColor=none;points=[[0,0.5],[1,0.5]];portConstraint=eastwest;fontSize=16;" vertex="1" parent="2WUb4r8tFX5clPql4qqL-42">
          <mxGeometry width="120" height="49" as="geometry" />
        </mxCell>
        <mxCell id="2WUb4r8tFX5clPql4qqL-44" value="#IdShow" style="shape=partialRectangle;html=1;whiteSpace=wrap;connectable=0;strokeColor=inherit;overflow=hidden;fillColor=none;top=0;left=0;bottom=0;right=0;pointerEvents=1;fontSize=16;" vertex="1" parent="2WUb4r8tFX5clPql4qqL-43">
          <mxGeometry width="120" height="49" as="geometry">
            <mxRectangle width="120" height="49" as="alternateBounds" />
          </mxGeometry>
        </mxCell>
        <mxCell id="2WUb4r8tFX5clPql4qqL-47" value="" style="shape=tableRow;horizontal=0;startSize=0;swimlaneHead=0;swimlaneBody=0;strokeColor=inherit;top=0;left=0;bottom=0;right=0;collapsible=0;dropTarget=0;fillColor=none;points=[[0,0.5],[1,0.5]];portConstraint=eastwest;fontSize=16;" vertex="1" parent="2WUb4r8tFX5clPql4qqL-42">
          <mxGeometry y="49" width="120" height="49" as="geometry" />
        </mxCell>
        <mxCell id="2WUb4r8tFX5clPql4qqL-48" value="Data" style="shape=partialRectangle;html=1;whiteSpace=wrap;connectable=0;strokeColor=inherit;overflow=hidden;fillColor=none;top=0;left=0;bottom=0;right=0;pointerEvents=1;fontSize=16;" vertex="1" parent="2WUb4r8tFX5clPql4qqL-47">
          <mxGeometry width="120" height="49" as="geometry">
            <mxRectangle width="120" height="49" as="alternateBounds" />
          </mxGeometry>
        </mxCell>
        <mxCell id="2WUb4r8tFX5clPql4qqL-74" style="shape=tableRow;horizontal=0;startSize=0;swimlaneHead=0;swimlaneBody=0;strokeColor=inherit;top=0;left=0;bottom=0;right=0;collapsible=0;dropTarget=0;fillColor=none;points=[[0,0.5],[1,0.5]];portConstraint=eastwest;fontSize=16;" vertex="1" parent="2WUb4r8tFX5clPql4qqL-42">
          <mxGeometry y="98" width="120" height="47" as="geometry" />
        </mxCell>
        <mxCell id="2WUb4r8tFX5clPql4qqL-75" value="Horario" style="shape=partialRectangle;html=1;whiteSpace=wrap;connectable=0;strokeColor=inherit;overflow=hidden;fillColor=none;top=0;left=0;bottom=0;right=0;pointerEvents=1;fontSize=16;" vertex="1" parent="2WUb4r8tFX5clPql4qqL-74">
          <mxGeometry width="120" height="47" as="geometry">
            <mxRectangle width="120" height="47" as="alternateBounds" />
          </mxGeometry>
        </mxCell>
        <mxCell id="2WUb4r8tFX5clPql4qqL-76" style="shape=tableRow;horizontal=0;startSize=0;swimlaneHead=0;swimlaneBody=0;strokeColor=inherit;top=0;left=0;bottom=0;right=0;collapsible=0;dropTarget=0;fillColor=none;points=[[0,0.5],[1,0.5]];portConstraint=eastwest;fontSize=16;" vertex="1" parent="2WUb4r8tFX5clPql4qqL-42">
          <mxGeometry y="145" width="120" height="48" as="geometry" />
        </mxCell>
        <mxCell id="2WUb4r8tFX5clPql4qqL-77" value="NomeEvento" style="shape=partialRectangle;html=1;whiteSpace=wrap;connectable=0;strokeColor=inherit;overflow=hidden;fillColor=none;top=0;left=0;bottom=0;right=0;pointerEvents=1;fontSize=16;" vertex="1" parent="2WUb4r8tFX5clPql4qqL-76">
          <mxGeometry width="120" height="48" as="geometry">
            <mxRectangle width="120" height="48" as="alternateBounds" />
          </mxGeometry>
        </mxCell>
        <mxCell id="2WUb4r8tFX5clPql4qqL-78" style="shape=tableRow;horizontal=0;startSize=0;swimlaneHead=0;swimlaneBody=0;strokeColor=inherit;top=0;left=0;bottom=0;right=0;collapsible=0;dropTarget=0;fillColor=none;points=[[0,0.5],[1,0.5]];portConstraint=eastwest;fontSize=16;" vertex="1" parent="2WUb4r8tFX5clPql4qqL-42">
          <mxGeometry y="193" width="120" height="47" as="geometry" />
        </mxCell>
        <mxCell id="2WUb4r8tFX5clPql4qqL-79" value="ValorIngresso" style="shape=partialRectangle;html=1;whiteSpace=wrap;connectable=0;strokeColor=inherit;overflow=hidden;fillColor=none;top=0;left=0;bottom=0;right=0;pointerEvents=1;fontSize=16;" vertex="1" parent="2WUb4r8tFX5clPql4qqL-78">
          <mxGeometry width="120" height="47" as="geometry">
            <mxRectangle width="120" height="47" as="alternateBounds" />
          </mxGeometry>
        </mxCell>
        <mxCell id="2WUb4r8tFX5clPql4qqL-80" value="" style="shape=table;startSize=0;container=1;collapsible=0;childLayout=tableLayout;fontSize=16;fillColor=default;" vertex="1" parent="1">
          <mxGeometry x="3000" y="1080" width="120" height="185" as="geometry" />
        </mxCell>
        <mxCell id="2WUb4r8tFX5clPql4qqL-81" value="" style="shape=tableRow;horizontal=0;startSize=0;swimlaneHead=0;swimlaneBody=0;strokeColor=inherit;top=0;left=0;bottom=0;right=0;collapsible=0;dropTarget=0;fillColor=none;points=[[0,0.5],[1,0.5]];portConstraint=eastwest;fontSize=16;" vertex="1" parent="2WUb4r8tFX5clPql4qqL-80">
          <mxGeometry width="120" height="47" as="geometry" />
        </mxCell>
        <mxCell id="2WUb4r8tFX5clPql4qqL-82" value="#Numero" style="shape=partialRectangle;html=1;whiteSpace=wrap;connectable=0;strokeColor=inherit;overflow=hidden;fillColor=none;top=0;left=0;bottom=0;right=0;pointerEvents=1;fontSize=16;" vertex="1" parent="2WUb4r8tFX5clPql4qqL-81">
          <mxGeometry width="120" height="47" as="geometry">
            <mxRectangle width="120" height="47" as="alternateBounds" />
          </mxGeometry>
        </mxCell>
        <mxCell id="2WUb4r8tFX5clPql4qqL-83" value="" style="shape=tableRow;horizontal=0;startSize=0;swimlaneHead=0;swimlaneBody=0;strokeColor=inherit;top=0;left=0;bottom=0;right=0;collapsible=0;dropTarget=0;fillColor=none;points=[[0,0.5],[1,0.5]];portConstraint=eastwest;fontSize=16;" vertex="1" parent="2WUb4r8tFX5clPql4qqL-80">
          <mxGeometry y="47" width="120" height="47" as="geometry" />
        </mxCell>
        <mxCell id="2WUb4r8tFX5clPql4qqL-84" value="#IdShow" style="shape=partialRectangle;html=1;whiteSpace=wrap;connectable=0;strokeColor=inherit;overflow=hidden;fillColor=none;top=0;left=0;bottom=0;right=0;pointerEvents=1;fontSize=16;" vertex="1" parent="2WUb4r8tFX5clPql4qqL-83">
          <mxGeometry width="120" height="47" as="geometry">
            <mxRectangle width="120" height="47" as="alternateBounds" />
          </mxGeometry>
        </mxCell>
        <mxCell id="2WUb4r8tFX5clPql4qqL-85" style="shape=tableRow;horizontal=0;startSize=0;swimlaneHead=0;swimlaneBody=0;strokeColor=inherit;top=0;left=0;bottom=0;right=0;collapsible=0;dropTarget=0;fillColor=none;points=[[0,0.5],[1,0.5]];portConstraint=eastwest;fontSize=16;" vertex="1" parent="2WUb4r8tFX5clPql4qqL-80">
          <mxGeometry y="94" width="120" height="45" as="geometry" />
        </mxCell>
        <mxCell id="2WUb4r8tFX5clPql4qqL-86" value="#IdCliente" style="shape=partialRectangle;html=1;whiteSpace=wrap;connectable=0;strokeColor=inherit;overflow=hidden;fillColor=none;top=0;left=0;bottom=0;right=0;pointerEvents=1;fontSize=16;" vertex="1" parent="2WUb4r8tFX5clPql4qqL-85">
          <mxGeometry width="120" height="45" as="geometry">
            <mxRectangle width="120" height="45" as="alternateBounds" />
          </mxGeometry>
        </mxCell>
        <mxCell id="2WUb4r8tFX5clPql4qqL-87" style="shape=tableRow;horizontal=0;startSize=0;swimlaneHead=0;swimlaneBody=0;strokeColor=inherit;top=0;left=0;bottom=0;right=0;collapsible=0;dropTarget=0;fillColor=none;points=[[0,0.5],[1,0.5]];portConstraint=eastwest;fontSize=16;" vertex="1" parent="2WUb4r8tFX5clPql4qqL-80">
          <mxGeometry y="139" width="120" height="46" as="geometry" />
        </mxCell>
        <mxCell id="2WUb4r8tFX5clPql4qqL-88" value="#IdVendedor" style="shape=partialRectangle;html=1;whiteSpace=wrap;connectable=0;strokeColor=inherit;overflow=hidden;fillColor=none;top=0;left=0;bottom=0;right=0;pointerEvents=1;fontSize=16;" vertex="1" parent="2WUb4r8tFX5clPql4qqL-87">
          <mxGeometry width="120" height="46" as="geometry">
            <mxRectangle width="120" height="46" as="alternateBounds" />
          </mxGeometry>
        </mxCell>
        <mxCell id="2WUb4r8tFX5clPql4qqL-91" value="" style="shape=table;startSize=0;container=1;collapsible=0;childLayout=tableLayout;fontSize=16;fillColor=default;" vertex="1" parent="1">
          <mxGeometry x="3200" y="1080" width="120" height="94" as="geometry" />
        </mxCell>
        <mxCell id="2WUb4r8tFX5clPql4qqL-92" value="" style="shape=tableRow;horizontal=0;startSize=0;swimlaneHead=0;swimlaneBody=0;strokeColor=inherit;top=0;left=0;bottom=0;right=0;collapsible=0;dropTarget=0;fillColor=none;points=[[0,0.5],[1,0.5]];portConstraint=eastwest;fontSize=16;" vertex="1" parent="2WUb4r8tFX5clPql4qqL-91">
          <mxGeometry width="120" height="47" as="geometry" />
        </mxCell>
        <mxCell id="2WUb4r8tFX5clPql4qqL-93" value="#IdCliente" style="shape=partialRectangle;html=1;whiteSpace=wrap;connectable=0;strokeColor=inherit;overflow=hidden;fillColor=none;top=0;left=0;bottom=0;right=0;pointerEvents=1;fontSize=16;" vertex="1" parent="2WUb4r8tFX5clPql4qqL-92">
          <mxGeometry width="120" height="47" as="geometry">
            <mxRectangle width="120" height="47" as="alternateBounds" />
          </mxGeometry>
        </mxCell>
        <mxCell id="2WUb4r8tFX5clPql4qqL-94" value="" style="shape=tableRow;horizontal=0;startSize=0;swimlaneHead=0;swimlaneBody=0;strokeColor=inherit;top=0;left=0;bottom=0;right=0;collapsible=0;dropTarget=0;fillColor=none;points=[[0,0.5],[1,0.5]];portConstraint=eastwest;fontSize=16;" vertex="1" parent="2WUb4r8tFX5clPql4qqL-91">
          <mxGeometry y="47" width="120" height="47" as="geometry" />
        </mxCell>
        <mxCell id="2WUb4r8tFX5clPql4qqL-95" value="Nome" style="shape=partialRectangle;html=1;whiteSpace=wrap;connectable=0;strokeColor=inherit;overflow=hidden;fillColor=none;top=0;left=0;bottom=0;right=0;pointerEvents=1;fontSize=16;" vertex="1" parent="2WUb4r8tFX5clPql4qqL-94">
          <mxGeometry width="120" height="47" as="geometry">
            <mxRectangle width="120" height="47" as="alternateBounds" />
          </mxGeometry>
        </mxCell>
        <mxCell id="2WUb4r8tFX5clPql4qqL-100" value="&lt;font style=&quot;font-size: 26px;&quot;&gt;Show&lt;/font&gt;" style="text;html=1;align=center;verticalAlign=middle;whiteSpace=wrap;rounded=0;" vertex="1" parent="1">
          <mxGeometry x="2800" y="1030" width="120" height="49" as="geometry" />
        </mxCell>
        <mxCell id="2WUb4r8tFX5clPql4qqL-101" value="&lt;font style=&quot;font-size: 26px;&quot;&gt;Ingresso&lt;/font&gt;" style="text;html=1;align=center;verticalAlign=middle;whiteSpace=wrap;rounded=0;" vertex="1" parent="1">
          <mxGeometry x="3000" y="1030" width="120" height="49" as="geometry" />
        </mxCell>
        <mxCell id="2WUb4r8tFX5clPql4qqL-102" value="&lt;font style=&quot;font-size: 26px;&quot;&gt;Cliente&lt;/font&gt;" style="text;html=1;align=center;verticalAlign=middle;whiteSpace=wrap;rounded=0;" vertex="1" parent="1">
          <mxGeometry x="3200" y="1030" width="120" height="49" as="geometry" />
        </mxCell>
        <mxCell id="2WUb4r8tFX5clPql4qqL-103" value="" style="shape=table;startSize=0;container=1;collapsible=0;childLayout=tableLayout;fontSize=16;fillColor=default;" vertex="1" parent="1">
          <mxGeometry x="3400" y="1080" width="120" height="94" as="geometry" />
        </mxCell>
        <mxCell id="2WUb4r8tFX5clPql4qqL-104" value="" style="shape=tableRow;horizontal=0;startSize=0;swimlaneHead=0;swimlaneBody=0;strokeColor=inherit;top=0;left=0;bottom=0;right=0;collapsible=0;dropTarget=0;fillColor=none;points=[[0,0.5],[1,0.5]];portConstraint=eastwest;fontSize=16;" vertex="1" parent="2WUb4r8tFX5clPql4qqL-103">
          <mxGeometry width="120" height="47" as="geometry" />
        </mxCell>
        <mxCell id="2WUb4r8tFX5clPql4qqL-105" value="#IdVendedor" style="shape=partialRectangle;html=1;whiteSpace=wrap;connectable=0;strokeColor=inherit;overflow=hidden;fillColor=none;top=0;left=0;bottom=0;right=0;pointerEvents=1;fontSize=16;" vertex="1" parent="2WUb4r8tFX5clPql4qqL-104">
          <mxGeometry width="120" height="47" as="geometry">
            <mxRectangle width="120" height="47" as="alternateBounds" />
          </mxGeometry>
        </mxCell>
        <mxCell id="2WUb4r8tFX5clPql4qqL-106" value="" style="shape=tableRow;horizontal=0;startSize=0;swimlaneHead=0;swimlaneBody=0;strokeColor=inherit;top=0;left=0;bottom=0;right=0;collapsible=0;dropTarget=0;fillColor=none;points=[[0,0.5],[1,0.5]];portConstraint=eastwest;fontSize=16;" vertex="1" parent="2WUb4r8tFX5clPql4qqL-103">
          <mxGeometry y="47" width="120" height="47" as="geometry" />
        </mxCell>
        <mxCell id="2WUb4r8tFX5clPql4qqL-107" value="Nome" style="shape=partialRectangle;html=1;whiteSpace=wrap;connectable=0;strokeColor=inherit;overflow=hidden;fillColor=none;top=0;left=0;bottom=0;right=0;pointerEvents=1;fontSize=16;" vertex="1" parent="2WUb4r8tFX5clPql4qqL-106">
          <mxGeometry width="120" height="47" as="geometry">
            <mxRectangle width="120" height="47" as="alternateBounds" />
          </mxGeometry>
        </mxCell>
        <mxCell id="2WUb4r8tFX5clPql4qqL-108" value="&lt;font style=&quot;font-size: 26px;&quot;&gt;Vendedor&lt;/font&gt;" style="text;html=1;align=center;verticalAlign=middle;whiteSpace=wrap;rounded=0;" vertex="1" parent="1">
          <mxGeometry x="3400" y="1031.5" width="120" height="49" as="geometry" />
        </mxCell>
        <mxCell id="2WUb4r8tFX5clPql4qqL-109" value="" style="shape=table;startSize=0;container=1;collapsible=0;childLayout=tableLayout;fontSize=16;fillColor=default;" vertex="1" parent="1">
          <mxGeometry x="3000" y="1409" width="120" height="141" as="geometry" />
        </mxCell>
        <mxCell id="2WUb4r8tFX5clPql4qqL-110" value="" style="shape=tableRow;horizontal=0;startSize=0;swimlaneHead=0;swimlaneBody=0;strokeColor=inherit;top=0;left=0;bottom=0;right=0;collapsible=0;dropTarget=0;fillColor=none;points=[[0,0.5],[1,0.5]];portConstraint=eastwest;fontSize=16;" vertex="1" parent="2WUb4r8tFX5clPql4qqL-109">
          <mxGeometry width="120" height="47" as="geometry" />
        </mxCell>
        <mxCell id="2WUb4r8tFX5clPql4qqL-111" value="#IdArtista" style="shape=partialRectangle;html=1;whiteSpace=wrap;connectable=0;strokeColor=inherit;overflow=hidden;fillColor=none;top=0;left=0;bottom=0;right=0;pointerEvents=1;fontSize=16;" vertex="1" parent="2WUb4r8tFX5clPql4qqL-110">
          <mxGeometry width="120" height="47" as="geometry">
            <mxRectangle width="120" height="47" as="alternateBounds" />
          </mxGeometry>
        </mxCell>
        <mxCell id="2WUb4r8tFX5clPql4qqL-112" value="" style="shape=tableRow;horizontal=0;startSize=0;swimlaneHead=0;swimlaneBody=0;strokeColor=inherit;top=0;left=0;bottom=0;right=0;collapsible=0;dropTarget=0;fillColor=none;points=[[0,0.5],[1,0.5]];portConstraint=eastwest;fontSize=16;" vertex="1" parent="2WUb4r8tFX5clPql4qqL-109">
          <mxGeometry y="47" width="120" height="47" as="geometry" />
        </mxCell>
        <mxCell id="2WUb4r8tFX5clPql4qqL-113" value="Nome" style="shape=partialRectangle;html=1;whiteSpace=wrap;connectable=0;strokeColor=inherit;overflow=hidden;fillColor=none;top=0;left=0;bottom=0;right=0;pointerEvents=1;fontSize=16;" vertex="1" parent="2WUb4r8tFX5clPql4qqL-112">
          <mxGeometry width="120" height="47" as="geometry">
            <mxRectangle width="120" height="47" as="alternateBounds" />
          </mxGeometry>
        </mxCell>
        <mxCell id="2WUb4r8tFX5clPql4qqL-115" style="shape=tableRow;horizontal=0;startSize=0;swimlaneHead=0;swimlaneBody=0;strokeColor=inherit;top=0;left=0;bottom=0;right=0;collapsible=0;dropTarget=0;fillColor=none;points=[[0,0.5],[1,0.5]];portConstraint=eastwest;fontSize=16;" vertex="1" parent="2WUb4r8tFX5clPql4qqL-109">
          <mxGeometry y="94" width="120" height="47" as="geometry" />
        </mxCell>
        <mxCell id="2WUb4r8tFX5clPql4qqL-116" value="GeneroMusical" style="shape=partialRectangle;html=1;whiteSpace=wrap;connectable=0;strokeColor=inherit;overflow=hidden;fillColor=none;top=0;left=0;bottom=0;right=0;pointerEvents=1;fontSize=16;" vertex="1" parent="2WUb4r8tFX5clPql4qqL-115">
          <mxGeometry width="120" height="47" as="geometry">
            <mxRectangle width="120" height="47" as="alternateBounds" />
          </mxGeometry>
        </mxCell>
        <mxCell id="2WUb4r8tFX5clPql4qqL-114" value="&lt;font style=&quot;font-size: 26px;&quot;&gt;Artista&lt;/font&gt;" style="text;html=1;align=center;verticalAlign=middle;whiteSpace=wrap;rounded=0;" vertex="1" parent="1">
          <mxGeometry x="3000" y="1359" width="120" height="49" as="geometry" />
        </mxCell>
        <mxCell id="2WUb4r8tFX5clPql4qqL-117" value="" style="shape=table;startSize=0;container=1;collapsible=0;childLayout=tableLayout;fontSize=16;fillColor=default;" vertex="1" parent="1">
          <mxGeometry x="2800" y="1411.5" width="120" height="94" as="geometry" />
        </mxCell>
        <mxCell id="2WUb4r8tFX5clPql4qqL-118" value="" style="shape=tableRow;horizontal=0;startSize=0;swimlaneHead=0;swimlaneBody=0;strokeColor=inherit;top=0;left=0;bottom=0;right=0;collapsible=0;dropTarget=0;fillColor=none;points=[[0,0.5],[1,0.5]];portConstraint=eastwest;fontSize=16;" vertex="1" parent="2WUb4r8tFX5clPql4qqL-117">
          <mxGeometry width="120" height="47" as="geometry" />
        </mxCell>
        <mxCell id="2WUb4r8tFX5clPql4qqL-119" value="#IdShow" style="shape=partialRectangle;html=1;whiteSpace=wrap;connectable=0;strokeColor=inherit;overflow=hidden;fillColor=none;top=0;left=0;bottom=0;right=0;pointerEvents=1;fontSize=16;" vertex="1" parent="2WUb4r8tFX5clPql4qqL-118">
          <mxGeometry width="120" height="47" as="geometry">
            <mxRectangle width="120" height="47" as="alternateBounds" />
          </mxGeometry>
        </mxCell>
        <mxCell id="2WUb4r8tFX5clPql4qqL-120" value="" style="shape=tableRow;horizontal=0;startSize=0;swimlaneHead=0;swimlaneBody=0;strokeColor=inherit;top=0;left=0;bottom=0;right=0;collapsible=0;dropTarget=0;fillColor=none;points=[[0,0.5],[1,0.5]];portConstraint=eastwest;fontSize=16;" vertex="1" parent="2WUb4r8tFX5clPql4qqL-117">
          <mxGeometry y="47" width="120" height="47" as="geometry" />
        </mxCell>
        <mxCell id="2WUb4r8tFX5clPql4qqL-121" value="#IdArtista" style="shape=partialRectangle;html=1;whiteSpace=wrap;connectable=0;strokeColor=inherit;overflow=hidden;fillColor=none;top=0;left=0;bottom=0;right=0;pointerEvents=1;fontSize=16;" vertex="1" parent="2WUb4r8tFX5clPql4qqL-120">
          <mxGeometry width="120" height="47" as="geometry">
            <mxRectangle width="120" height="47" as="alternateBounds" />
          </mxGeometry>
        </mxCell>
        <mxCell id="2WUb4r8tFX5clPql4qqL-124" value="&lt;font style=&quot;font-size: 26px;&quot;&gt;Artista/Show&lt;/font&gt;" style="text;html=1;align=center;verticalAlign=middle;whiteSpace=wrap;rounded=0;" vertex="1" parent="1">
          <mxGeometry x="2800" y="1361.5" width="120" height="49" as="geometry" />
        </mxCell>
        <mxCell id="2WUb4r8tFX5clPql4qqL-125" style="edgeStyle=orthogonalEdgeStyle;rounded=0;orthogonalLoop=1;jettySize=auto;html=1;endArrow=none;endFill=0;" edge="1" parent="1" source="2WUb4r8tFX5clPql4qqL-120" target="2WUb4r8tFX5clPql4qqL-110">
          <mxGeometry relative="1" as="geometry" />
        </mxCell>
        <mxCell id="2WUb4r8tFX5clPql4qqL-126" style="edgeStyle=orthogonalEdgeStyle;rounded=0;orthogonalLoop=1;jettySize=auto;html=1;entryX=0;entryY=0.5;entryDx=0;entryDy=0;endArrow=none;endFill=0;" edge="1" parent="1" source="2WUb4r8tFX5clPql4qqL-118" target="2WUb4r8tFX5clPql4qqL-43">
          <mxGeometry relative="1" as="geometry" />
        </mxCell>
        <mxCell id="2WUb4r8tFX5clPql4qqL-127" style="edgeStyle=orthogonalEdgeStyle;rounded=0;orthogonalLoop=1;jettySize=auto;html=1;entryX=0;entryY=0.5;entryDx=0;entryDy=0;endArrow=none;endFill=0;" edge="1" parent="1" source="2WUb4r8tFX5clPql4qqL-43" target="2WUb4r8tFX5clPql4qqL-83">
          <mxGeometry relative="1" as="geometry" />
        </mxCell>
        <mxCell id="2WUb4r8tFX5clPql4qqL-128" style="edgeStyle=orthogonalEdgeStyle;rounded=0;orthogonalLoop=1;jettySize=auto;html=1;entryX=0;entryY=0.5;entryDx=0;entryDy=0;endArrow=none;endFill=0;" edge="1" parent="1" source="2WUb4r8tFX5clPql4qqL-85" target="2WUb4r8tFX5clPql4qqL-92">
          <mxGeometry relative="1" as="geometry" />
        </mxCell>
        <mxCell id="2WUb4r8tFX5clPql4qqL-129" value="" style="edgeStyle=orthogonalEdgeStyle;rounded=0;orthogonalLoop=1;jettySize=auto;html=1;entryX=0;entryY=0.5;entryDx=0;entryDy=0;endArrow=none;endFill=0;" edge="1" parent="1" source="2WUb4r8tFX5clPql4qqL-87" target="2WUb4r8tFX5clPql4qqL-104">
          <mxGeometry relative="1" as="geometry">
            <Array as="points">
              <mxPoint x="3360" y="1242" />
              <mxPoint x="3360" y="1104" />
            </Array>
          </mxGeometry>
        </mxCell>
      </root>
    </mxGraphModel>
  </diagram>
</mxfile>
